<?xml version="1.0" standalone="no"?>
<!DOCTYPE svg PUBLIC "-//W3C//DTD SVG 20010904//EN"
 "http://www.w3.org/TR/2001/REC-SVG-20010904/DTD/svg10.dtd">
<svg version="1.0" xmlns="http://www.w3.org/2000/svg"
 width="256.000000pt" height="149.000000pt" viewBox="0 0 256.000000 149.000000"
 preserveAspectRatio="xMidYMid meet">

<g transform="translate(0.000000,149.000000) scale(0.100000,-0.100000)"
fill="#000000" stroke="none">
<path d="M1795 1484 c-11 -2 -45 -9 -75 -15 -30 -6 -97 -31 -149 -56 -77 -37
-108 -59 -176 -126 -66 -66 -91 -100 -127 -173 -25 -51 -49 -110 -53 -133 -4
-22 -10 -41 -15 -41 -5 0 -84 122 -176 270 -92 149 -170 270 -173 270 -3 0
-196 -305 -428 -678 l-421 -677 106 -3 c94 -2 109 -1 122 16 8 10 150 235 315
500 165 265 303 481 307 480 5 -2 147 -226 316 -498 l308 -495 244 1 c275 0
331 9 450 68 237 116 380 347 380 611 0 92 -10 169 -24 182 -3 3 -39 -16 -81
-41 l-75 -47 0 -89 c0 -452 -538 -675 -855 -354 -287 292 -117 787 292 846
134 19 288 -26 389 -115 l43 -38 78 52 77 52 -58 52 c-74 66 -147 110 -233
140 -106 37 -235 53 -308 39z"/>
</g>
</svg>
